# xmcd CD database file
#
# Track frame offsets:
#	150
#	17167
#	33114
#	48313
#	62280
#	86815
#	104537
#	120252
#	141967
#	159045
#
# Disc length: 2408 seconds
#
# Revision: 10
# Processed by: cddbd v1.5.2PL0 Copyright (c) Steve Scherf et al.
# Submitted via: CDex 1.70beta2
#
DISCID=7109660a
DTITLE=Daniel Balavoine - Le Chanteur
DYEAR=1978
DGENRE=Variété Française
TTITLE0=Les Oiseaux 1/2
TTITLE1=Les Oiseaux 2/2
TTITLE2=France
TTITLE3=C'est un Voyou
TTITLE4=Lucie
TTITLE5=Le Chanteur
TTITLE6=Si je suis fou
TTITLE7=Oiseau de nuit
TTITLE8=Le pied par terre
TTITLE9=Des gens comme vous
EXTD=YEAR: 1978
EXTT0=
EXTT1=
EXTT2=
EXTT3=
EXTT4=
EXTT5=
EXTT6=
EXTT7=
EXTT8=
EXTT9=
PLAYORDER=
